<?xml version="1.0" encoding="UTF-8" standalone="no"?>
<svg
   fill="none"
   height="64"
   viewBox="0 0 64 64"
   width="64"
   version="1.1"
   id="svg4"
   sodipodi:docname="parking.svg"
   inkscape:version="1.4.2 (ebf0e940d0, 2025-05-08)"
   xmlns:inkscape="http://www.inkscape.org/namespaces/inkscape"
   xmlns:sodipodi="http://sodipodi.sourceforge.net/DTD/sodipodi-0.dtd"
   xmlns="http://www.w3.org/2000/svg"
   xmlns:svg="http://www.w3.org/2000/svg">
  <defs
     id="defs4" />
  <sodipodi:namedview
     id="namedview4"
     pagecolor="#ffffff"
     bordercolor="#000000"
     borderopacity="0.25"
     inkscape:showpageshadow="2"
     inkscape:pageopacity="0.0"
     inkscape:pagecheckerboard="0"
     inkscape:deskcolor="#d1d1d1"
     inkscape:zoom="15.578125"
     inkscape:cx="31.967904"
     inkscape:cy="31.967904"
     inkscape:window-width="2540"
     inkscape:window-height="1392"
     inkscape:window-x="0"
     inkscape:window-y="0"
     inkscape:window-maximized="1"
     inkscape:current-layer="svg4" />
  <g
     fill="rgb(0,0,0)"
     id="g4"
     style="fill:#f08332;fill-opacity:1">
    <path
       d="m55.2677 8.77732c-8.983-9.036428-23.5523-9.036428-32.5353 0-5.7089 5.74278-7.7832 13.75078-6.2371 21.13268.2265 1.0811 1.2864 1.774 2.3675 1.5475 1.0812-.2264 1.774-1.2864 1.5476-2.3675-1.2828-6.1247.4415-12.7473 5.1588-17.4926 7.419-7.46318 19.4427-7.46318 26.8617 0 7.4255 7.4697 7.4255 19.5853 0 27.055l-14.8493 14.9376c-.7787.7833-.7749 2.0497.0084 2.8284.7834.7787 2.0497.775 2.8284-.0084l14.8493-14.9375c8.9764-9.0299 8.9764-23.6653 0-32.69518z"
       id="path1"
       style="fill:#f08332;fill-opacity:1" />
    <g
       clip-rule="evenodd"
       fill-rule="evenodd"
       id="g3"
       style="fill:#f08332;fill-opacity:1">
      <path
         d="m7.26763 38.498c.72234-2.1145 2.729-3.498 4.94197-3.498h13.5808c2.213 0 4.2196 1.3835 4.942 3.498l1.2221 3.5774c.9205-.3787 2.0002-.0203 2.5013.8691.5421.9623.2015 2.182-.7609 2.7242l-.1026.0577c1.4589 1.1241 2.4077 2.8719 2.4077 4.8645v6.2727c0 2.8828-2.3811 5.1364-5.2143 5.1364-2.3264 0-4.348-1.5195-4.9968-3.6591h-13.5778c-.6488 2.1396-2.67039 3.6591-4.99681 3.6591-2.83322 0-5.21429-2.2536-5.21429-5.1364v-6.2727c0-1.972.9292-3.7041 2.36247-4.8293l-.16502-.0929c-.96236-.5422-1.30301-1.7619-.76086-2.7242.51813-.9197 1.65507-1.2716 2.59483-.8278zm2.20765 5.9111 1.57762-4.618c.1526-.4469.6026-.7911 1.1567-.7911h13.5808c.5541 0 1.0041.3442 1.1567.7911l1.5776 4.618zm.41754 5.2273c-1.10457 0-2 .8954-2 2 0 1.1045.89543 2 2 2h2.14288c1.1045 0 2-.8955 2-2 0-1.1046-.8955-2-2-2zm15.53568 0c-1.1045 0-2 .8954-2 2 0 1.1045.8955 2 2 2h2.1429c1.1046 0 2-.8955 2-2 0-1.1046-.8954-2-2-2z"
         id="path2"
         style="fill:#f08332;fill-opacity:1" />
      <path
         d="m37 29h3c3.866 0 7-3.134 7-7s-3.134-7-7-7h-5c-1.1046 0-2 .8954-2 2v16c0 1.1046.8954 2 2 2s2-.8954 2-2zm0-10v6h3c1.6569 0 3-1.3431 3-3s-1.3431-3-3-3z"
         id="path3"
         style="fill:#f08332;fill-opacity:1" />
    </g>
  </g>
</svg>
